<?xml version="1.0" encoding="iso-8859-1"?>
<!-- Generator: Adobe Illustrator 19.0.0, SVG Export Plug-In . SVG Version: 6.00 Build 0)  -->
<svg version="1.1" id="Capa_1" xmlns="http://www.w3.org/2000/svg" xmlns:xlink="http://www.w3.org/1999/xlink" x="0px" y="0px"
	 viewBox="0 0 404.8 404.8" style="enable-background:new 0 0 404.8 404.8;" xml:space="preserve">
<path style="fill:#F4A23F;" d="M173.17,339.2c-15.2,1.6-28-9.6-29.6-24.8c0-1.6,0-3.2,0-4.8v-156h170.4v155.2
	c1.6,15.2-9.6,28-24.8,29.6c-1.6,0-3.2,0-4.8,0h-111.2V339.2z"/>
<path style="fill:#E28539;" d="M277.17,153.6v155.2c1.6,15.2-9.6,28-24.8,29.6c-1.6,0-3.2,0-4.8,0h37.6c15.2,1.6,28-9.6,29.6-24.8
	c0-1.6,0-3.2,0-4.8V153.6H277.17z"/>
<rect x="143.57" y="100" style="fill:#FFFFFF;" width="170.4" height="53.6"/>
<rect x="279.57" y="100" style="fill:#F7EEBA;" width="34.4" height="53.6"/>
<path style="fill:#FFFFFF;" d="M147.57,100c-18.4,0-32.8-11.2-32.8-25.6s14.4-24.8,33.6-24.8h2.4c0-23.2,24-41.6,53.6-41.6
	c16.8-0.8,33.6,6.4,44.8,19.2c7.2-3.2,14.4-5.6,22.4-5.6c9.6,0,18.4,2.4,26.4,8c7.2,4.8,12,12.8,12.8,21.6V52v1.6h2.4
	c16.8,0,30.4,10.4,30.4,23.2s-13.6,23.2-30.4,23.2H147.57z"/>
<path style="fill:#F7EEBA;" d="M313.17,53.6h-2.4V52v-0.8c0-8.8-4.8-16.8-12.8-21.6c-8-5.6-16.8-8-26.4-8c-8,0-15.2,1.6-22.4,5.6
	c-11.2-12.8-28-19.2-44.8-19.2c-13.6,0-27.2,4-38.4,12.8c4-0.8,8-0.8,12-0.8c16.8-1.6,32.8,5.6,44.8,18.4c7.2-3.2,14.4-5.6,22.4-5.6
	c9.6,0,18.4,2.4,26.4,8c7.2,4.8,12,12.8,12.8,21.6v0.8v1.6h2.4c16.8,0,30.4,10.4,30.4,23.2c0,4-1.6,8.8-4,12l0,0
	c16.8,0,30.4-10.4,30.4-23.2S329.17,53.6,313.17,53.6z"/>
<path style="fill:#FBCF4C;" d="M122.77,395.2c-16,0-28.8-13.6-28.8-29.6c0-12,7.2-22.4,18.4-26.4V100h30.4v209.6
	c-1.6,15.2,10.4,28.8,25.6,29.6c1.6,0,3.2,0,4.8,0h111.2c15.2,1.6,28.8-10.4,29.6-25.6c0-1.6,0-3.2,0-4.8V100h30.4v239.2
	c15.2,5.6,22.4,22.4,16.8,37.6c-4,11.2-14.4,18.4-26.4,18.4L122.77,395.2z"/>
<path style="fill:#EDB248;" d="M334.77,395.2c4,0,8-0.8,11.2-2.4c5.6-10.4,11.2-21.6,16.8-33.6c-2.4-9.6-9.6-17.6-18.4-20.8V100
	h-29.6v295.2H334.77z"/>
<path style="fill:#FBCF4C;" d="M71.57,292c-8.8,0-29.6-4-29.6-38.4V176c0-34.4,20.8-38.4,28.8-38.4h42.4v35.2h-22.4
	c-14.4,0-16,16-16,20.8v41.6c0,4.8,0.8,20.8,16,20.8h22.4v35.2L71.57,292z"/>
<path style="fill:#4A2328;" d="M352.37,333.6V100c0-4-2.4-7.2-6.4-8c3.2-4.8,4.8-9.6,5.6-15.2c0-16-14.4-28.8-32.8-31.2
	c-4-18.4-23.2-32-46.4-32c-7.2,0-13.6,1.6-20,4C239.57,6.4,222.77,0,205.17,0c-30.4,0-56,17.6-60.8,41.6
	c-21.6,1.6-37.6,16-37.6,32.8c0,6.4,2.4,12.8,6.4,17.6c-4.8,0-8,3.2-8,8v30.4h-33.6c-23.2,0-37.6,17.6-37.6,46.4v77.6
	c0,28,14.4,46.4,36.8,46.4h34.4v34.4c-17.6,9.6-24,32.8-14.4,50.4c6.4,12,19.2,19.2,32,19.2h211.2c20.8,0,36.8-16.8,36.8-36.8
	C371.57,352.8,364.37,340.8,352.37,333.6L352.37,333.6z M148.37,57.6h1.6c2.4,0,4-0.8,6.4-2.4c1.6-1.6,2.4-4,2.4-5.6
	c0-18.4,20-33.6,45.6-33.6c14.4-0.8,28.8,5.6,39.2,16c2.4,3.2,6.4,4,9.6,2.4c5.6-3.2,12-4.8,18.4-4.8c16.8,0,31.2,10.4,31.2,21.6
	c0,0.8,0,0.8,0,1.6c0,2.4,0.8,4.8,2.4,6.4s4,2.4,6.4,2.4h2.4c12,0,22.4,7.2,22.4,15.2S325.97,92,313.97,92h-166.4
	c-13.6,0-24.8-8-24.8-17.6S133.97,57.6,148.37,57.6z M151.57,145.6V108h154.4v37.6H151.57z M305.97,161.6v147.2
	c1.6,10.4-6.4,20.8-16.8,21.6c-1.6,0-3.2,0-4.8,0h-111.2c-10.4,1.6-20.8-6.4-21.6-16.8c0-1.6,0-3.2,0-4.8V161.6H305.97z M71.57,284
	c-17.6,0-21.6-16-21.6-30.4V176c0-13.6,4-30.4,20.8-30.4h34.4v19.2h-14.4c-14.4,0-24,11.2-24,28.8v41.6c0,17.6,9.6,28.8,24,28.8
	h14.4v19.2L71.57,284z M105.17,181.6v67.2h-14.4c-1.6,0-8,0-8-12.8v-41.6c0-12.8,5.6-12.8,8-12.8H105.17z M334.77,387.2h-212
	c-11.2,0-20.8-9.6-20.8-20.8c0-8.8,5.6-16.8,13.6-20c3.2-0.8,5.6-4,4.8-7.2V108h14.4v201.6c-1.6,19.2,13.6,36.8,32.8,37.6
	c1.6,0,3.2,0,4.8,0h111.2c19.2,1.6,36.8-13.6,37.6-32.8c0-1.6,0-3.2,0-4.8V108h14.4v231.2c0,3.2,2.4,6.4,5.6,7.2
	c11.2,4,16.8,16,12.8,26.4C351.57,381.6,343.57,387.2,334.77,387.2L334.77,387.2z"/>
<g>
</g>
<g>
</g>
<g>
</g>
<g>
</g>
<g>
</g>
<g>
</g>
<g>
</g>
<g>
</g>
<g>
</g>
<g>
</g>
<g>
</g>
<g>
</g>
<g>
</g>
<g>
</g>
<g>
</g>
</svg>
