<?xml version="1.0" encoding="iso-8859-1"?>
<!-- Generator: Adobe Illustrator 19.0.0, SVG Export Plug-In . SVG Version: 6.00 Build 0)  -->
<svg version="1.1" id="Capa_1" xmlns="http://www.w3.org/2000/svg" xmlns:xlink="http://www.w3.org/1999/xlink" x="0px" y="0px"
	 viewBox="0 0 511.999 511.999" style="enable-background:new 0 0 511.999 511.999;" xml:space="preserve">
<rect x="171.676" y="401.504" style="fill:#36569C;" width="168.638" height="30.287"/>
<rect x="255.995" y="401.504" style="fill:#193359;" width="84.319" height="30.287"/>
<path style="fill:#6385CF;" d="M156.334,511.999c-0.945,0-1.902-0.089-2.864-0.274c-8.215-1.573-13.599-9.507-12.026-17.721
	l29.567-154.439c1.573-8.214,9.507-13.598,17.721-12.026c8.215,1.573,13.599,9.507,12.026,17.721L171.19,499.7
	C169.801,506.953,163.454,511.999,156.334,511.999z"/>
<g>
	<path style="fill:#36569C;" d="M355.666,511.999c-7.12,0-13.467-5.046-14.856-12.298l-29.567-154.35
		c-1.574-8.215,3.809-16.149,12.024-17.722c8.216-1.574,16.149,3.81,17.722,12.024l29.567,154.35
		c1.574,8.215-3.809,16.149-12.024,17.722C357.57,511.911,356.61,511.999,355.666,511.999z"/>
	<path style="fill:#36569C;" d="M255.999,369.674c-108.369,0-196.532-88.164-196.532-196.533c0-8.363,6.78-15.144,15.144-15.144
		h362.779c8.363,0,15.143,6.78,15.143,15.144C452.533,281.509,364.368,369.674,255.999,369.674z"/>
</g>
<g>
	<path style="fill:#FFB726;" d="M187.008,135.281c-3.839,0-7.68-1.451-10.631-4.358c-17.255-17.009-17.895-34.449-15.393-46.085
		c3.029-14.09,11.616-24.103,15.168-27.756c0.959-0.986,5.817-6.247,7.271-13.005c0.853-3.97,1.051-10.168-7.045-18.149
		c-5.956-5.871-6.025-15.46-0.154-21.415c5.871-5.957,15.46-6.025,21.415-0.154c17.256,17.009,17.896,34.449,15.394,46.085
		c-3.03,14.09-11.617,24.104-15.169,27.756c-0.959,0.986-5.816,6.247-7.27,13.005c-0.853,3.97-1.052,10.168,7.045,18.149
		c5.955,5.872,6.025,15.46,0.153,21.416C194.831,133.775,190.92,135.281,187.008,135.281z"/>
	<path style="fill:#FFB726;" d="M255.999,135.281c-3.839,0-7.68-1.451-10.631-4.358c-17.255-17.009-17.895-34.449-15.393-46.085
		c3.029-14.09,11.616-24.103,15.168-27.756c0.959-0.986,5.817-6.247,7.27-13.005c0.854-3.97,1.052-10.168-7.045-18.149
		c-5.956-5.871-6.025-15.46-0.154-21.415c5.872-5.957,15.459-6.025,21.415-0.154c17.256,17.009,17.896,34.449,15.394,46.085
		c-3.03,14.09-11.617,24.104-15.169,27.756c-0.959,0.986-5.816,6.247-7.27,13.005c-0.853,3.97-1.052,10.168,7.045,18.149
		c5.956,5.872,6.025,15.46,0.153,21.416C263.821,133.775,259.91,135.281,255.999,135.281z"/>
</g>
<path style="fill:#FC8B25;" d="M324.989,135.281c-3.839,0-7.68-1.451-10.631-4.358c-17.255-17.009-17.895-34.449-15.393-46.085
	c3.029-14.09,11.616-24.103,15.168-27.756c0.959-0.986,5.817-6.247,7.271-13.005c0.853-3.97,1.051-10.168-7.045-18.149
	c-5.956-5.871-6.025-15.46-0.154-21.415c5.871-5.957,15.461-6.025,21.415-0.154c17.256,17.009,17.896,34.449,15.394,46.085
	c-3.03,14.09-11.617,24.104-15.169,27.756c-0.959,0.986-5.816,6.247-7.27,13.005c-0.853,3.97-1.052,10.168,7.045,18.149
	c5.955,5.872,6.025,15.46,0.153,21.416C332.811,133.775,328.9,135.281,324.989,135.281z"/>
<path style="fill:#193359;" d="M437.389,157.997H255.996v211.677c0.001,0,0.002,0,0.003,0c108.369,0,196.532-88.164,196.532-196.533
	C452.533,164.777,445.752,157.997,437.389,157.997z"/>
<path style="fill:#FC8B25;" d="M255.996,0.004v135.277c0.001,0,0.002,0,0.002,0c3.911,0,7.822-1.506,10.785-4.513
	c5.871-5.956,5.803-15.544-0.153-21.416c-8.097-7.981-7.898-14.179-7.045-18.149c1.453-6.758,6.311-12.02,7.27-13.005
	c3.552-3.652,12.139-13.667,15.169-27.756c2.502-11.635,1.862-29.076-15.394-46.085C263.679,1.449,259.837,0.003,255.996,0.004z"/>
<g>
</g>
<g>
</g>
<g>
</g>
<g>
</g>
<g>
</g>
<g>
</g>
<g>
</g>
<g>
</g>
<g>
</g>
<g>
</g>
<g>
</g>
<g>
</g>
<g>
</g>
<g>
</g>
<g>
</g>
</svg>
